<svg width="10" height="10" viewBox="0 0 10 10" fill="none" xmlns="http://www.w3.org/2000/svg">
    <path d="M5 0C2.245 0 0 2.245 0 5C0 7.755 2.245 10 5 10C7.755 10 10 7.755 10 5C10 2.245 7.755 0 5 0ZM5.895 6.5C6.04 6.645 6.04 6.885 5.895 7.03C5.82 7.105 5.725 7.14 5.63 7.14C5.535 7.14 5.44 7.105 5.365 7.03L3.6 5.265C3.53026 5.19443 3.49115 5.09922 3.49115 5C3.49115 4.90078 3.53026 4.80557 3.6 4.735L5.365 2.97C5.51 2.825 5.75 2.825 5.895 2.97C6.04 3.115 6.04 3.355 5.895 3.5L4.395 5L5.895 6.5Z" fill="#5E7CFA"/>
</svg>
